<svg version="1.0" xmlns="http://www.w3.org/2000/svg" width="1365.333" height="1365.333" viewBox="0 0 1024 1024"><path d="M309.8 100.5c-.2.1-7.6.6-16.5.9-9 .4-18 .8-20 1.1-8.3.9-15.9 1.8-17.3 2-.8.2-3.3.5-5.5.9-8.4 1.2-24.6 5.7-35 9.6-30.8 11.5-56.6 30.8-77.2 57.6-4.5 5.9-17.3 26.5-17.3 27.9 0 .3-1.1 2.8-2.4 5.7-7.9 17.5-13.7 40.4-15.3 60.5-.3 4-.8 7.3-1.2 7.3-.3 0-.7 5.1-.7 11.3-.4 25.3-.6 29.7-1.8 29.7-.8 0-.8.2 0 .8 1.4.9 1.5 7.4.1 6.5-.6-.4-.7-.1-.1.8 1.1 1.8 1.3 7.9.2 7.9-.5 0-.4.9.2 2 .8 1.4.8 2 0 2-.6 0-.8.5-.4 1.2 1 1.6 1.2 5.8.2 6.4-.4.3-.5 1.1-.1 1.9.3.9-.1 2.3-.8 3.2-1 1.2-1 1.5-.1.9 1.1-.7 1.8 1.3 1.2 3.9-.5 2.5-.1 235.6.5 236.5.3.5.2 1-.3 1-.4 0-.6 2.2-.2 5 .4 2.7.2 5-.2 5-.5 0-.5.7 0 1.7.5.9.6 2.8.2 4.3-.4 1.5-.4 3.4.1 4.1 1.2 1.9 1.1 3.2-.1 2.4-.5-.3-.8 0-.5.7 1 2.9 1.1 10.8.1 10.8-.7 0-.8.3-.1.8 1.1.8 1.3 5.7.2 6.8-.3.4-.2 1.5.4 2.5.7 1.3.6 1.9-.1 1.9-.6 0-.8.5-.4 1.1 1 1.6 1.1 12 .2 12.5-.5.3-.5 1-.2 1.6 1.1 1.8 1 15.8-.1 15.8-.5 0-.4.4.3.9 1.6 1 1.6.9.3 4.3-.6 1.5-.7 2.9-.2 3.2.9.6.8 6.3-.2 7.2-.3.4-.2 1.5.4 2.5.7 1.4.6 1.9-.2 1.9s-.8.4-.2 1.2c1.2 1.6 1.1 11.8-.1 13.7-.6.9-.5 1.2.2.7 1.4-.8 1.2 3.6-.3 4.6-.7.5-.6.8.1.8s1.1 2.5 1.2 6.8c0 9.2 1.2 31.6 1.7 32.1.2.2 0 1.2-.6 2.2-.5 1.1-.6 1.9-.1 1.9.6 0 1 1.5 1.1 3.2.2 6.2.9 13.3 1.4 14.8.7 1.8 2.8 13.7 3 16.7.1 1.3.5 2.3.9 2.3.5 0 .6 1.1.4 2.4-.2 1.4-.1 2.6.3 2.8.5.2 1.2 1.4 1.6 2.7.5 1.7.4 2.1-.5 1.6-.7-.4-.4.4.5 1.8.9 1.5 1.3 3.2.9 3.8-.4.8-.3.9.4.5 1.6-1 1.5 1.6-.1 3.4-1 1.2-.9 1.2.5.1 1.5-1.1 1.9-1.1 2.4.3.3.9.3 2.3 0 3.2-.3.8-.2 1.2.4.9.5-.3 1.2.7 1.6 2.2.3 1.5 1.3 3.8 2 5 .8 1.3 1.1 2.3.7 2.3-.5 0-.3.4.2.8.6.4 2.3 3.2 3.8 6.2 3.8 7.5 10.2 17.7 14 22.4 1.7 2.2 2.4 3.6 1.6 3.1-.8-.5.1.6 1.9 2.4 1.8 1.7 3 3.7 2.6 4.3-.4.6-.3.8.3.5.6-.4 1.9.3 2.9 1.6 1.9 2.1 1.9 2.1-.1.7-1.9-1.4-1.9-1.4-.6.2.7 1 1.9 1.8 2.7 1.8.7 0 1.6.5 2 1.2.5.7.3.8-.6.3-.9-.5-1.1-.4-.6.3.4.7 1.4 1.2 2.2 1.2.8 0 1.4.7 1.4 1.5s.5 1.5 1 1.5c.6 0 3.2 2.1 5.9 4.7 2.6 2.7 6.6 6.1 8.9 7.7 2.3 1.6 4.2 3.3 4.2 3.8s.4.7.9.3c.5-.3 1.6.4 2.4 1.5.7 1.1 1.7 1.7 2.2 1.2.4-.4.5.1.2 1.1-.4 1.1-.3 1.6.3 1.2.6-.4 2.7.4 4.8 1.7 6.8 4.2 9.7 5.9 11.5 6.4 1.6.6 2.1 1.7 1.8 3.6 0 .5.4.8 1 .8s.9-.6.6-1.4c-.4-1 1.1-.7 5.1 1.2 3.1 1.4 5.9 2.9 6 3.4.2.4 1.5.8 2.8.8 1.6 0 2.4.6 2.4 1.7s.3 1.4.8.7c1.2-1.8 11.4 1.6 10.9 3.7-.2.8.1 1.6.8 1.6.7 0 1.1-.6.8-1.4-.3-.7 0-1.3.6-1.3s1.1.4 1.1.9.9.7 2 .4c1.5-.4 2 0 2 1.3 0 1.5.2 1.6.9.5s1.4-1.1 4 .2c1.7.9 2.8 1.1 2.5.5-.5-.8-.1-.9 1-.5 1 .4 2.2.7 2.7.7.6 0 .8.3.6.7-.3.5 2 .8 5 .9 3.3 0 5.8.5 6.3 1.3.6 1.1.9 1.1 1.3 0 .4-1 .6-.9.6.3.1 1 .5 1.8 1.1 1.8.5 0 .7-.6.4-1.4-.8-2.1 3.7-.8 5.7 1.7 1.3 1.6 1.9 1.8 3.5.9 1.8-1.1 1.7-1.2-.5-.9-1.3.1-2.6-.3-2.8-1-.2-.7.3-1 1.4-.8 1 .2 3.3.4 5.1.4 2.4.1 3.1.5 2.6 1.3-.6 1-.4 1 .7.2.8-.6 2.3-1 3.4-.8 1.1.2 4.6.4 7.8.5 3.4.1 5.7.6 5.7 1.3 0 .7.3.6.8-.2 1-1.4 5.8-.9 5.5.6-.1.6.4 1.2 1.1 1.5 1 .4 1.3-.1 1-1.6-.2-1.2-.2-1.6.2-1 .4.9 1.1 1 2.5.3 1.3-.8 1.9-.7 1.9 0s.6.8 1.9 0c2.2-1.1 3.7.2 2.5 2.2-.4.7-.3.8.4.4s1.2-1.5 1.3-2.4c0-1.1.2-1.2.6-.4.2.6 1 .9 1.6.5.6-.4.8 0 .4 1-.4 1.1-.2 1.4.8 1 .8-.3 1.3-.9 1-1.3-.3-.4 18.2-.7 41.2-.7 40.5.2 41.6.3 41.9 2.2.2 1-.3 2.6-.9 3.5-1.1 1.3-1 1.3.5.1 1.1-.8 1.6-2.2 1.4-3.6-.4-2.1-.1-2.2 6-2.4 4.6-.1 6.4.2 6.4 1.1 0 .9.3.9.8.2s8.9-1 25.1-1c23.5.1 24.4.2 24.7 2.1.2 1-.3 2.6-.9 3.5-1.1 1.3-1 1.3.5.1 1.1-.8 1.6-2.2 1.4-3.6-.4-2.1-.1-2.2 6-2.4 4.6-.1 6.4.2 6.4 1.1 0 .9.3.9.8.2 1-1.5 34.4-1.5 33.5 0-.5.8-.2.8.8 0 1.6-1.4 68.2-1.7 67.4-.4-.3.4.2 1 1 1.3.8.4 1.2.1.9-.6-.3-.9.8-1.4 3.2-1.5 2-.2 3.3.1 3 .7-.3.5.1 1.1.9 1.4.8.4 1.2.1.9-.6-.3-.9.8-1.4 3.2-1.5 2-.2 3.3.1 3 .7-.3.5.1 1.1.9 1.4.8.4 1.2.1.9-.6-.3-.9.8-1.4 3.2-1.5 2-.2 3.3.1 3 .7-.3.5.1 1.1.9 1.4.9.4 1.2.1.9-.7-.4-1.1 3.9-1.3 22.8-1.2 17 .1 23.3.4 23.3 1.3 0 .6.3 1.5.7 1.9.4.3.6-.2.3-1.4-.3-1.9.1-2 11.3-2 9.6 0 11.9.3 12.9 1.7 1.1 1.4 1.2 1.4.8 0-.5-1.4 1-1.6 12.5-1.6 10 0 13 .3 12.6 1.2-.3.9.2 1.1 1.6.7 1.5-.4 1.7-.7.6-1.4-.9-.6-.3-.8 2-.5 1.7.2 3.2.1 3.2-.3s.7-.7 1.5-.7 1.5.3 1.5.6 1.3.6 3 .7c1.6.1 2.7-.3 2.4-.7-.7-1.3 3 .3 3.8 1.5.5.7.8.5.8-.4 0-1.2 1.7-1.5 8-1.7 4.4-.1 7.8.1 7.6.6-.3.4.1.8.9.8s1.2-.4.9-.9c-.3-.4.3-.8 1.3-.9 1 0 3.4-.2 5.3-.4 2.3-.2 3.8.2 4.7 1.3 1.1 1.5 1.2 1.5.8.1-.3-.9 0-1.6.7-1.7.7-.1 3.1-.4 5.3-.7 5.7-.7 10.5-1.4 14.4-2.1 2.6-.4 3.2-.3 2.6.8-.3.7.1.4.9-.6.9-1.1 1.6-1.7 1.6-1.4 0 .4 1.4.3 3-.2 2.1-.6 3-.5 3 .3 0 .6.6.4 1.3-.5 1.6-2.1 7.1-3 8.6-1.5 1 .9 1.2.9.9-.1-.2-.8.7-1.8 2-2.3 1.5-.6 2.2-.5 2.2.4 0 .8.3.9.8.1.7-1.1 4.5-3.4 5.6-3.4.3 0 .4.6.2 1.2-.1.7-.1 1 .1.5.3-.4.9-.5 1.3-.2.5.3 1.2 0 1.6-.6.4-.8.3-.9-.4-.5s-1.2.3-1.2-.1c0-.6 8.2-4.2 11-4.8.3 0 2.9-1.3 5.8-2.8 2.8-1.5 5.2-2.5 5.2-2.2 0 .3.9-.4 2-1.5 1.2-1.2 2.5-1.8 3-1.5.6.4 1 .1 1-.4 0-.6.6-1.1 1.3-1.1.8 0 2.2-.9 3.2-2s2.1-1.7 2.5-1.5c.4.3 1.1-.2 1.4-1.1.3-.8 1-1.2 1.6-.9.6.4.7 1.2.4 1.8-.4.7-.3.8.2.4.5-.5.9-1.6.9-2.5 0-1.1.8-1.7 2.2-1.6 1.2 0 2-.2 1.8-.6-.6-.9.6-2.2 4.8-5.3 3.3-2.5 4-2.7 5.5-1.5 1.5 1.1 1.6 1.1.4-.3-1.1-1.4-.4-2.5 4.9-7.5 3.4-3.3 6.6-5.7 7.3-5.6.6.2.8 0 .3-.4-.4-.4 0-1.6.9-2.6 1.4-1.5 2-1.6 3.3-.5 1.4 1 1.4 1 .3-.4-1-1.4-.8-2.1 1.7-4.7 1.5-1.7 3.2-2.8 3.6-2.4.5.4.5.2.1-.5-.7-1.3 2.3-5.5 3.5-4.8.4.3.6-.3.5-1.3 0-.9.5-1.6 1.2-1.4.8.1 1.1-.2.7-.8-.3-.5.5-2.5 1.8-4.2 1.4-1.8 3.9-5.9 5.7-9.1 1.8-3.2 3.6-5.4 4.2-5 .6.3.8.1.5-.5-1-1.5.3-4.3 1.6-3.5.6.3.7.1.3-.6-.8-1.3 3.3-11.1 4.6-11.1.5 0 .8-.6.6-1.3-.1-.6.6-3.5 1.6-6.4 1.2-3.7 2.1-5 3.2-4.6.8.3 1.4 0 1.4-.6s-.3-1-.7-.9c-1.6.6-1.5-.9.5-7.7 1.2-3.9 2.3-8.4 2.6-10 .2-1.7.5-3.1.6-3.3.4-.4.6-1.4 2-11.9.9-6.8 1.7-10 2.4-9.6.6.4.5-.1-.2-1-.8-.9-1-2.2-.6-2.9.4-.7.7-2.5.6-4.1-.2-2.1.1-2.6 1-2.1 1 .6 1 .4.2-.7-.6-.8-1-2.8-.8-4.4.1-1.7.4-7.4.6-12.7.2-5.4.6-9.8 1-9.8s.5-.6.2-1.3c-.7-1.9-1.1-9.7-.4-9.7.4 0 .4-371.2-.1-392.2-.1-3.6.2-7.1.6-7.7.3-.6.3-1.1-.2-1.1-.4 0-.8-3.7-.9-8.3-.1-9.5-1.2-30.1-1.8-33.7-.3-1.4-.7-4.7-1.1-7.4-.3-2.7-1.2-8.3-2-12.5-3.7-19.2-7.9-31.7-16.4-48.6-28.4-56.8-83.7-91.6-152.5-96.1-5-.3-11.1-.8-13.6-1.1-4.4-.5-425.6-1.3-426.2-.8zM125 836.1c0 .5.5.7 1 .4.6-.3 1-.8 1-1.1 0-.2-.4-.4-1-.4-.5 0-1 .5-1 1.1zm763.6 17.7c-.3.5.1.9.9.9s1.2-.4.9-.9c-.3-.4-.7-.8-.9-.8-.2 0-.6.4-.9.8zm-753.1 1.1c-.3.5-.2 1.2.3 1.5.5.3.9-.1.9-.9 0-1.7-.3-1.9-1.2-.6zm7.5 10.5c0 .2.7.7 1.6 1 .8.3 1.2.2.9-.4-.6-1-2.5-1.4-2.5-.6zm738.5.6c.3.5.8 1 1.1 1 .2 0 .4-.5.4-1 0-.6-.5-1-1.1-1-.5 0-.7.4-.4 1z"/><path d="M875 868.2c0 .4.4.8.9.8.6 0 1.2-.4 1.5-.8.3-.5-.1-.9-.9-.9s-1.5.4-1.5.9zm-3.3 2.5c-1 .9-.9 2.3.1 2.3.5 0 .9-.7.9-1.5 0-1.7-.1-1.8-1-.8zM868 874c-.8.5-1.2 1.2-.9 1.5.4.3 1.2-.1 1.9-1 1.4-1.7 1.1-1.9-1-.5zm-713.4 2.2c.4.5 1.2.7 1.9.4.8-.3 1.6-.1 1.9.5.2.5.3.4.2-.2-.1-.7-1.2-1.3-2.4-1.4-1.1-.1-1.9.2-1.6.7zm716.9-.2c.3.5.8 1 1.1 1 .2 0 .4-.5.4-1 0-.6-.5-1-1.1-1-.5 0-.7.4-.4 1zm-710.2 4.5c0 .8.4 1.2.9.9.5-.3.6-1 .3-1.5-.9-1.3-1.2-1.1-1.2.6zm701.7-.1c.7.7 1.3.7 2 0 .6-.6.3-1-1-1s-1.6.4-1 1zm-701.4 3.4c-.3.5.1.9.9.9s1.2-.4.9-.9c-.3-.4-.7-.8-.9-.8-.2 0-.6.4-.9.8zm3.4.4c0 .6.3.8.7.5.3-.4 1.6.1 2.7 1 2.1 1.8 2.1 1.8.2-.5-2.1-2.4-3.6-2.9-3.6-1zm692.6 0c.3.5 1 .6 1.5.3 1.3-.9 1.1-1.2-.6-1.2-.8 0-1.2.4-.9.9zm-692.7 3.5c-1.3 1.6-1.2 1.7.4.4.9-.7 1.7-1.5 1.7-1.7 0-.8-.8-.3-2.1 1.3zm688.7 1c-.6 1.4-.5 1.5.5.6.7-.7 1-1.5.7-1.8-.3-.3-.9.2-1.2 1.2zm-683.6.8c0 .2.6.8 1.3 1.4 1 .8 1.4.7 1.4-.2 0-.8-.6-1.4-1.4-1.4-.7 0-1.3.1-1.3.2zm672 7.9c0 .2.8 1 1.8 1.7 1.5 1.3 1.6 1.2.3-.4s-2.1-2.1-2.1-1.3zm-656.7 2.3c.2 1.2.7 2.6 1.2 3 .4.5.5.3.1-.4-.3-.6.4-1.9 1.6-2.7 1.2-.9 1.7-1.6 1.1-1.6-.7 0-1.5.5-1.9 1.1-.4.8-.9.7-1.5-.2-.6-1-.8-.8-.6.8zm-6.3.4c0 .5.5.7 1 .4.6-.3 1-.8 1-1.1 0-.2-.4-.4-1-.4-.5 0-1 .5-1 1.1zm652 .3c0 .2.9.6 2 .9 1.1.3 1.8.1 1.4-.4-.5-.9-3.4-1.3-3.4-.5zM203.5 907c-.4.6-1 .8-1.5.5-.4-.3-1.4.3-2.1 1.3-1.2 1.5-1.2 1.6.2.5.9-.7 1.8-1.1 2.1-.8.3.3 1.1-.1 1.8-1 .7-.8 1-1.5.7-1.5-.3 0-.9.5-1.2 1zm3.4 1.2c.7 1 1 1.8.6 1.8s-.2.7.5 1.5 1.8 1.5 2.4 1.5c.6 0 .3-.5-.7-1.1-.9-.6-1.5-1.4-1.2-1.8.2-.5-.3-1.5-1.3-2.2-1.5-1.3-1.6-1.2-.3.3zm616.1-.1c0 .5.5.7 1 .4.6-.3 1-.8 1-1.1 0-.2-.4-.4-1-.4-.5 0-1 .5-1 1.1zm-621.5 3c-.4.6-.5 1.2-.2 1.5.2.3.7-.2 1-1.1.7-1.7.1-2-.8-.4zm10.4 3.6c-1.3 1.6-1.2 1.7.4.4 1.6-1.3 2.1-2.1 1.3-2.1-.2 0-1 .8-1.7 1.7zm-12.3 1.5c.3.5 1 .6 1.5.3 1.3-.9 1.1-1.2-.6-1.2-.8 0-1.2.4-.9.9zm17.8.4c.1.8.4 1.5.7 1.6.2.2.3.1.2-.1-.2-.2.2-.9.7-1.6.7-.8.5-1.2-.4-1.2-.8 0-1.3.6-1.2 1.3zm3.6-.4c0 .6.3.8.7.5.3-.4 1.3-.1 2.2.6 1.4 1.1 1.4 1 .2-.6-1.5-2-3.1-2.2-3.1-.5zm576-.3c0 .6.4 1.3 1 1.6.6.3.7-.1.4-.9-.7-1.8-1.4-2.1-1.4-.7zm5 .1c-.9.6-1 1-.3 1 .6 0 1.5-.5 1.8-1 .8-1.2.4-1.2-1.5 0zm5.3.7c0 .9.4 1 1.4.2.7-.6 1.3-1.2 1.3-1.4 0-.1-.6-.2-1.3-.2-.8 0-1.4.6-1.4 1.4zm3.7-.6c0 .5.5.7 1 .4.6-.3 1-.8 1-1.1 0-.2-.4-.4-1-.4-.5 0-1 .5-1 1.1zm-580.1 1.6c-1.3 1.6-1.2 1.7.4.4.9-.7 1.7-1.5 1.7-1.7 0-.8-.8-.3-2.1 1.3zm555.7.2c-.4.5.3.7 1.4.4 2.3-.6 2.6-1.3.6-1.3-.8 0-1.7.4-2 .9zm-560.7.3c-.5.9-.5 4.8-.1 4.3.6-.6 1.1-4.5.5-4.5-.2 0-.4.1-.4.2zm5.8 2.3c-.4.8-.3 1.6.1 1.9.4.3.9-.4.9-1.5.2-2.3-.3-2.5-1-.4zm563.3-1c0 .7 3 1.3 3.4.7.3-.4-.4-.9-1.5-.9-1-.1-1.9 0-1.9.2zm-544.4 2.2c-.6 1.4-.5 1.5.5.6.7-.7 1-1.5.7-1.8-.3-.3-.9.2-1.2 1.2zm520.2 1.5c.2 1 .9 1.8 1.5 1.8s.7-.3.4-.7c-.4-.3-.3-1.1.3-1.7.6-.8.3-1.2-.9-1.2s-1.7.6-1.3 1.8zm9.9-1.1c.7.7 1.5 1 1.8.7.3-.3-.2-.9-1.2-1.2-1.4-.6-1.5-.5-.6.5zm-539.3 1c-.3.6-.2 1.5.3 2s.9.1.9-1.1c0-2.3-.2-2.4-1.2-.9zm4.2 1.1c.3.4 1.1.5 1.9.1 2.1-.7 1.9-1.2-.4-1-1.1 0-1.8.5-1.5.9zm9.4-.3c0 .6.4 1.3 1 1.6.6.3.7-.1.4-.9-.7-1.8-1.4-2.1-1.4-.7zm499.4.3c-.4.7-.3.8.5.4.6-.4 1.9-.2 2.7.5 1.2 1 1.3.9.8-.5-.7-1.9-3-2.1-4-.4zm10.6-.1c0 .5.4.8.9.4.6-.3 1.4.3 2 1.2.6 1 1.1 1.3 1.1.7 0-1.2-2-3.4-3.2-3.4-.4 0-.8.5-.8 1.1zm12.6.1c.3.5 1 .6 1.5.3 1.3-.9 1.1-1.2-.6-1.2-.8 0-1.2.4-.9.9zm-514.6.2c0 .2.8 1 1.8 1.7 1.5 1.3 1.6 1.2.3-.4s-2.1-2.1-2.1-1.3zm472.3 1.1c0 .8 1 2.3 2.1 3.2 2.1 1.8 2.1 1.8.4-.2-.9-1.1-1.7-2.4-1.6-2.8 0-.5-.2-1.1-.4-1.3-.3-.2-.5.3-.5 1.1zm-484.7.7c.3.4.9.8 1.5.8.5 0 .9-.4.9-.8 0-.5-.7-.9-1.5-.9s-1.2.4-.9.9zm8.4.2c.7.7 1.3.7 2 0 .6-.6.3-1-1-1s-1.6.4-1 1zm15.8-.7c.7.3 1.6.2 1.9-.1.4-.3-.2-.6-1.3-.5-1.1 0-1.4.3-.6.6zm28.8.1c-.3.5.1.9.9.9s1.2-.4.9-.9c-.3-.4-.7-.8-.9-.8-.2 0-.6.4-.9.8zm35.4.1c0 .6.4 1.2.8 1.5.5.3.9-.1.9-.9s-.4-1.5-.9-1.5c-.4 0-.8.4-.8.9zm12 .1c0 .5.5 1 1 1 .6 0 1-.5 1-1 0-.6-.4-1-1-1-.5 0-1 .4-1 1zm19.6.3c.3 1 .9 1.5 1.2 1.2.3-.3 0-1.1-.7-1.8-1-.9-1.1-.8-.5.6zm4.9-.3c-.3.5-.1 1 .4 1 .6 0 1.1-.5 1.1-1 0-.6-.2-1-.4-1-.3 0-.8.4-1.1 1zm19.2 1c.3 1.1.9 2.2 1.3 2.5.5.3.6-.4.3-1.5s-.9-2.2-1.3-2.5c-.5-.3-.6.4-.3 1.5zm31.9-.7c.3 1 .9 1.5 1.2 1.2.3-.3 0-1.1-.7-1.8-1-.9-1.1-.8-.5.6zm12.1.8c.4 1.3.8 1.8 1.1 1 .2-.7-.1-1.8-.6-2.3-.8-.8-.9-.4-.5 1.3zm20-.1c.3 1.1.9 2.2 1.3 2.5.5.3.6-.4.3-1.5s-.9-2.2-1.3-2.5c-.5-.3-.6.4-.3 1.5zm31.9-.7c.3 1 .9 1.5 1.2 1.2.3-.3 0-1.1-.7-1.8-1-.9-1.1-.8-.5.6zm12.1.8c.4 1.3.8 1.8 1.1 1 .2-.7-.1-1.8-.6-2.3-.8-.8-.9-.4-.5 1.3zm12-.1c.3 1.1.9 2.2 1.3 2.5.5.3.6-.4.3-1.5s-.9-2.2-1.3-2.5c-.5-.3-.6.4-.3 1.5zm4.8-1c-.3.5-.1 1 .4 1 .6 0 1.1-.5 1.1-1 0-.6-.2-1-.4-1-.3 0-.8.4-1.1 1zm19.1.3c.3 1 .9 1.5 1.2 1.2.3-.3 0-1.1-.7-1.8-1-.9-1.1-.8-.5.6zm4.9-.3c-.3.5-.1 1 .4 1 .6 0 1.1-.5 1.1-1 0-.6-.2-1-.4-1-.3 0-.8.4-1.1 1zm19.1.3c.3 1 .9 1.5 1.2 1.2.3-.3 0-1.1-.7-1.8-1-.9-1.1-.8-.5.6zm4.9-.3c-.3.5-.1 1 .4 1 .6 0 1.1-.5 1.1-1 0-.6-.2-1-.4-1-.3 0-.8.4-1.1 1zm43.1.4c.5 1.2.4 1.7-.3 1.3-.5-.3-1 .1-1 .9 0 1.3.2 1.3 1.6 0 1.2-1.3 1.3-1.8.2-2.8-1-1.1-1.1-.9-.5.6zm4.9-.4c-.3.5-.1 1 .4 1 .6 0 1.1-.5 1.1-1 0-.6-.2-1-.4-1-.3 0-.8.4-1.1 1zm19.4.6c.7 1.5.7 2.5-.2 3.5-.7.7-.3.6.9-.4 1.1-.9 2.4-1.4 2.9-1 .4.5.5.2.1-.5-.5-.7-1-1.1-1.4-.8-.3.3-1.1-.2-1.9-1.2-1.3-1.5-1.3-1.5-.4.4zm11.7-.2c.5 1.3.4 1.7-.4 1.2-.7-.4-1.2-.2-1.2.3 0 1.4 1.7 1.4 2.6 0 .3-.6.1-1.6-.5-2.2-.9-.9-1-.7-.5.7zm16.7.4c0 1.1.5 1.8.9 1.6.4-.3.8 0 .8.7s.3 1 .6.6c.3-.3-.1-1.6-.9-2.8-1.6-2.2-1.6-2.2-1.4-.1zm7.3-.3c.4.8 1.1 1.5 1.6 1.5.6 0 .5-.6-.2-1.5-.7-.8-1.4-1.5-1.6-1.5-.2 0-.1.7.2 1.5zm-401.3.9c0 1.5 2.2 1.5 3.4 0 .4-.5.4-.6-.1-.2-.5.4-1.4.3-2.1-.2-.8-.7-1.2-.5-1.2.4zm8.6-1.2c-.5.9-.5 4.8-.1 4.3.6-.6 1.1-4.5.5-4.5-.2 0-.4.1-.4.2zm14 0c-.5 1.8-.6 3.8-.1 3.4.7-.8 1.2-3.6.6-3.6-.2 0-.4.1-.5.2zm2.1.2c0 .2.7.7 1.6 1 .8.3 1.2.2.9-.4-.6-1-2.5-1.4-2.5-.6zm31.7 1.5c-.4 1.7-.3 2.1.5 1.3.5-.5.8-1.6.6-2.3-.3-.8-.7-.3-1.1 1zm106.5-.3c1 1 2 1.6 2.2 1.3.3-.3-.5-1.1-1.7-1.8-2.1-1.3-2.1-1.2-.5.5zm13.5-.5c.7.7 1.5 1 1.8.7.3-.3-.2-.9-1.2-1.2-1.4-.6-1.5-.5-.6.5zm50.5.5c1 1 2 1.6 2.2 1.3.3-.3-.5-1.1-1.7-1.8-2.1-1.3-2.1-1.2-.5.5zm13.5-.5c.7.7 1.5 1 1.8.7.3-.3-.2-.9-1.2-1.2-1.4-.6-1.5-.5-.6.5zm129.9.2c.3 1 .9 1.5 1.2 1.2.3-.3 0-1.1-.7-1.8-1-.9-1.1-.8-.5.6zm59.9-.2c-.4.6-.5 1.2-.2 1.5.2.3.7-.2 1-1.1.7-1.7.1-2-.8-.4zm56.1.2c.3 1 .9 1.5 1.2 1.2.3-.3 0-1.1-.7-1.8-1-.9-1.1-.8-.5.6zm10 0c.3 1 .9 1.5 1.2 1.2.3-.3 0-1.1-.7-1.8-1-.9-1.1-.8-.5.6zm-484.2 1.3c.1.7.6 1.7 1 2.1.4.4.6.1.4-.7-.2-.9.3-1.4 1.2-1.2.8.2 1.1 0 .7-.4-1.3-1.4-3.5-1.2-3.3.2zm25.2-.8c-.2.4.4.8 1.4.8 1 0 1.6-.4 1.4-.8-.3-.4-.9-.8-1.4-.8-.5 0-1.1.4-1.4.8zm4.9.2c-.3.5-.1 1 .4 1 .6 0 1.1-.5 1.1-1 0-.6-.2-1-.4-1-.3 0-.8.4-1.1 1zm7.5 0c0 .5.5 1 1.1 1 .5 0 .7-.5.4-1-.3-.6-.8-1-1.1-1-.2 0-.4.4-.4 1zm13.6-.1c-.3.4.6.7 1.9.7 1.4 0 2.2-.2 1.9-.5-.8-.8-3.4-1-3.8-.2zm14.8.5c.1.8.5 1.8.8 2.2.4.3.5-.1.4-1-.1-.8-.5-1.8-.8-2.2-.4-.3-.5.1-.4 1zm8.5-1.2c-.6 2-.6 3.9 0 4.2.4.3.7-.6.7-2 0-2-.4-3.2-.7-2.2zm12.1.8c-.9.6-1 1-.3 1 .6 0 1.5-.5 1.8-1 .8-1.2.4-1.2-1.5 0zm5 0c0 .5.5 1 1.1 1 .5 0 .7-.5.4-1-.3-.6-.8-1-1.1-1-.2 0-.4.4-.4 1zm13 0c-.8.5-1 1-.5 1 .6 0 1.7-.5 2.5-1s1.1-1 .5-1c-.5 0-1.7.5-2.5 1zm7.1.6c0 1.1.3 1.4.6.6.3-.7.2-1.6-.1-1.9-.3-.4-.6.2-.5 1.3zm19.9-.7c0 .6.4 1.3 1 1.6.6.3.7-.1.4-.9-.7-1.8-1.4-2.1-1.4-.7zm7 .1c.8.5 2 1 2.5 1 .6 0 .3-.5-.5-1s-1.9-1-2.5-1c-.5 0-.3.5.5 1zm21.1.6c0 1.1.3 1.4.6.6.3-.7.2-1.6-.1-1.9-.3-.4-.6.2-.5 1.3zm8.9-.6c-.8.5-1 1-.5 1 .6 0 1.7-.5 2.5-1s1.1-1 .5-1c-.5 0-1.7.5-2.5 1zm7.1.6c0 1.1.3 1.4.6.6.3-.7.2-1.6-.1-1.9-.3-.4-.6.2-.5 1.3zm19.9-.7c0 .6.4 1.3 1 1.6.6.3.7-.1.4-.9-.7-1.8-1.4-2.1-1.4-.7zm7 .1c.8.5 2 1 2.5 1 .6 0 .3-.5-.5-1s-1.9-1-2.5-1c-.5 0-.3.5.5 1zm21.1.6c0 1.1.3 1.4.6.6.3-.7.2-1.6-.1-1.9-.3-.4-.6.2-.5 1.3zm21.6-.5c.7.7 1.5 1 1.8.7.3-.3-.2-.9-1.2-1.2-1.4-.6-1.5-.5-.6.5zm5.3-.1c.8.5 2 1 2.5 1 .6 0 .3-.5-.5-1s-1.9-1-2.5-1c-.5 0-.3.5.5 1zm17.6.7c-.6 1.4-.5 1.5.5.6.7-.7 1-1.5.7-1.8-.3-.3-.9.2-1.2 1.2zm5.9-.7c.3.5.8 1 1.1 1 .2 0 .4-.5.4-1 0-.6-.5-1-1.1-1-.5 0-.7.4-.4 1zm9.5 0c0 .5.5 1 1.1 1 .5 0 .7-.5.4-1-.3-.6-.8-1-1.1-1-.2 0-.4.4-.4 1zm18-.1c0 .6.4 1.2.8 1.5.5.3.9-.1.9-.9s-.4-1.5-.9-1.5c-.4 0-.8.4-.8.9zm7.5.1c-.3.6.1.7.9.4 1.8-.7 2.1-1.4.7-1.4-.6 0-1.3.4-1.6 1zm35.9.1c-.5.8-.3.9.6.4.7-.4 1.6-.2 2.2.6.8 1.2.9 1.2.6 0-.6-2-2.4-2.5-3.4-1zm30.6.1c0 .4.4.8.9.8.6 0 1.2-.4 1.5-.8.3-.5-.1-.9-.9-.9s-1.5.4-1.5.9zm24-.4c0 .5.7.9 1.5.9s1.2-.4.9-.9c-.3-.4-.9-.8-1.5-.8-.5 0-.9.4-.9.8zm22.3.6c-.3.6-.3.8.2.4.4-.4 1.3-.3 2 .2.8.7 1.2.5 1.2-.3 0-1.6-2.5-1.8-3.4-.3zm7.7-.7c0 .6.8 1.7 1.8 2.4 1.6 1.3 1.6 1.3.2-.6-.8-1.1-1.6-2.2-1.7-2.4-.2-.2-.3 0-.3.6zm4.3.8c0 .8.4 1.2.9.9.5-.3.6-1 .3-1.5-.9-1.3-1.2-1.1-1.2.6zm6.3.2c-.6 1.4-.5 1.5.5.6.7-.7 1-1.5.7-1.8-.3-.3-.9.2-1.2 1.2zm9.8-.3c.1.8.5 1.8.8 2.2.4.3.5-.1.4-1-.1-.8-.5-1.8-.8-2.2-.4-.3-.5.1-.4 1zm39.1-.4c-.3.6.1.7.9.4 1.8-.7 2.1-1.4.7-1.4-.6 0-1.3.4-1.6 1zm-327.5.4c0 .2.8 1 1.8 1.7 1.5 1.3 1.6 1.2.3-.4s-2.1-2.1-2.1-1.3zm64 0c0 .2.8 1 1.8 1.7 1.5 1.3 1.6 1.2.3-.4s-2.1-2.1-2.1-1.3zm-219.1 2.3c-1.3 1.6-1.2 1.7.4.4 1.6-1.3 2.1-2.1 1.3-2.1-.2 0-1 .8-1.7 1.7zm14.1-1.3c0 .2.8 1 1.8 1.7 1.5 1.3 1.6 1.2.3-.4s-2.1-2.1-2.1-1.3zm49 .6c0 .5.5 1 1 1 .6 0 1-.5 1-1 0-.6-.4-1-1-1-.5 0-1 .4-1 1zm32.5 1c1 1.1 2 2 2.3 2 .3 0-.3-.9-1.3-2s-2-2-2.3-2c-.3 0 .3.9 1.3 2zm4.4-.3c-1.3 1.6-1.2 1.7.4.4 1.6-1.3 2.1-2.1 1.3-2.1-.2 0-1 .8-1.7 1.7zm43.6.3c1 1.1 2 2 2.3 2 .3 0-.3-.9-1.3-2s-2-2-2.3-2c-.3 0 .3.9 1.3 2zm4.1-.3c-.6 1.4-.5 1.5.5.6.7-.7 1-1.5.7-1.8-.3-.3-.9.2-1.2 1.2zm16.3 0c-1.3 1.6-1.2 1.7.4.4.9-.7 1.7-1.5 1.7-1.7 0-.8-.8-.3-2.1 1.3zm43.6.3c1 1.1 2 2 2.3 2 .3 0-.3-.9-1.3-2s-2-2-2.3-2c-.3 0 .3.9 1.3 2zm4.1-.3c-.6 1.4-.5 1.5.5.6.7-.7 1-1.5.7-1.8-.3-.3-.9.2-1.2 1.2zm12-.5c.3.5 1 .6 1.5.3 1.3-.9 1.1-1.2-.6-1.2-.8 0-1.2.4-.9.9zm30.8-.4c.4.3 1.4.7 2.2.8.9.1 1.3 0 1-.4-.4-.3-1.4-.7-2.2-.8-.9-.1-1.3 0-1 .4zm44.5.5c.6.8.7 1.8.3 2.2-.4.5-.1.5.6.1 1-.6 1-1.1.1-2.2-.6-.8-1.4-1.4-1.6-1.4-.3 0 0 .6.6 1.3zm7.1-.9c0 .2.8 1 1.8 1.7 1.5 1.3 1.6 1.2.3-.4s-2.1-2.1-2.1-1.3zm5 1c.7.7 1.3.7 2 0 .6-.6.3-1-1-1s-1.6.4-1 1zm5.1 0c-.9 1.1-.9 1.6.1 2.2.7.4 1 .4.6-.1-.4-.4-.3-1.4.3-2.2.6-.7.9-1.3.6-1.3-.2 0-1 .6-1.6 1.4zm51.4.6c1 1.1 2 2 2.3 2 .3 0-.3-.9-1.3-2s-2-2-2.3-2c-.3 0 .3.9 1.3 2zm4.1-.3c-.6 1.4-.5 1.5.5.6.7-.7 1-1.5.7-1.8-.3-.3-.9.2-1.2 1.2zm11-.8c-.4.5.3.7 1.4.4 2.3-.6 2.6-1.3.6-1.3-.8 0-1.7.4-2 .9zm16.7.8c0 .9.4 1 1.4.2.7-.6 1.3-1.2 1.3-1.4 0-.1-.6-.2-1.3-.2-.8 0-1.4.6-1.4 1.4zm4.5-1c.7.3 1.6.2 1.9-.1.4-.3-.2-.6-1.3-.5-1.1 0-1.4.3-.6.6zm67.2-.3c0 .2.7.7 1.6 1 .8.3 1.2.2.9-.4-.6-1-2.5-1.4-2.5-.6zm-449.5 1.5c-.3.5-.2 1.2.3 1.5.5.3.9-.1.9-.9 0-1.7-.3-1.9-1.2-.6zm4 0c-.3.5-.2 1.2.3 1.5.5.3.9-.1.9-.9 0-1.7-.3-1.9-1.2-.6zm4.1.4c.3 1 .9 1.5 1.2 1.2.3-.3 0-1.1-.7-1.8-1-.9-1.1-.8-.5.6zm259.9-.4c-.3.5-.2 1.2.3 1.5.5.3.9-.1.9-.9 0-1.7-.3-1.9-1.2-.6zm33.8.6c0 .8.4 1.2.9.9.5-.3.6-1 .3-1.5-.9-1.3-1.2-1.1-1.2.6zm8.2-.6c-.3.5-.2 1.2.3 1.5.5.3.9-.1.9-.9 0-1.7-.3-1.9-1.2-.6zm77.8.6c0 .8.4 1.2.9.9.5-.3.6-1 .3-1.5-.9-1.3-1.2-1.1-1.2.6zm-178.3 0c0 .7 3 1.3 3.4.7.3-.4-.4-.9-1.5-.9-1-.1-1.9 0-1.9.2zm88.6.7c.3.5 1 .6 1.5.3 1.3-.9 1.1-1.2-.6-1.2-.8 0-1.2.4-.9.9zm7.4 0c0 .4.4.8.9.8.6 0 1.2-.4 1.5-.8.3-.5-.1-.9-.9-.9s-1.5.4-1.5.9zm-23.3.5c-1 .9-.9 2.3.1 2.3.5 0 .9-.7.9-1.5 0-1.7-.1-1.8-1-.8z"/></svg>