<svg xmlns="http://www.w3.org/2000/svg" xmlns:xlink="http://www.w3.org/1999/xlink" viewBox="0 0 196.59 202.45">
  <defs>
    <style>
      .uuid-2c7ed790-b36e-4a46-8e58-fbd8dec625ab {
        fill: url(#uuid-6af4a765-c9cc-4b2b-ac02-11a1e0e297e6);
      }
      .uuid-525d8760-3910-4525-a6cb-5d14a5bbcb21 {
        fill: url(#uuid-4c88d131-a9ff-48a8-b2e2-dc945db675d1);
      }
    </style>
    <linearGradient id="uuid-4c88d131-a9ff-48a8-b2e2-dc945db675d1" x1="98.78" y1="191.54" x2="97.78" y2="6.5" gradientUnits="userSpaceOnUse">
      <stop offset="0" stop-color="#3d3e3e"/>
      <stop offset="1" stop-color="#505151"/>
    </linearGradient>
    <linearGradient id="uuid-6af4a765-c9cc-4b2b-ac02-11a1e0e297e6" x1="-852.84" y1="635.08" x2="-852.56" y2="635.08" gradientTransform="translate(31341.19 -24842.98) rotate(-73.35) scale(41.14 -35.87) skewX(4.87)" gradientUnits="userSpaceOnUse">
      <stop offset="0" stop-color="#ff9700"/>
      <stop offset=".53" stop-color="#f48e00"/>
      <stop offset="1" stop-color="#d06f00"/>
    </linearGradient>
  </defs>
  <g id="uuid-f39b8cae-7773-49d4-85a0-01dfb919543d" data-name="Base">
    <rect class="uuid-525d8760-3910-4525-a6cb-5d14a5bbcb21" width="196.59" height="202.45" rx="40.65" ry="40.65"/>
  </g>
  <g id="uuid-1bf929e8-8b8f-4435-86d4-9623adb3f9f7" data-name="Layer 4">
    <path class="uuid-34e2858b-0d52-4609-9f4e-c63151b6aa09" fill="#fff" d="m32.5,116.75c-8.57,0-12.85-2.7-12.85-8.1v-27.97c0-1.57.95-2.35,2.86-2.35s2.9.78,2.9,2.35v27.97c0,2.35,2.27,3.53,6.8,3.53h27.08c1.43,0,2.14.81,2.14,2.44,0,1.43-.71,2.14-2.14,2.14h-26.79Z"/>
    <path class="uuid-34e2858b-0d52-4609-9f4e-c63151b6aa09" fill="#fff" d="m176.94,88.21c0-2.94-2.95-4.41-8.86-4.41h-28.68c-1.6,0-2.39-.76-2.39-2.27s.8-2.31,2.39-2.31h27.97c10.11,0,15.16,2.83,15.16,8.48v6.72c0,5.94-5.17,8.9-15.5,8.9h-23.47c-.53,0-.8.34-.8,1.01v10.92c0,1.6-.97,2.39-2.9,2.39s-2.86-.8-2.86-2.39v-11.46c0-3.36,2.62-5.04,7.85-5.04h22.89c6.13,0,9.2-1.54,9.2-4.62v-5.92Z"/>
  </g>
  <g id="uuid-e77f8c60-c1ea-4048-b33b-f19c5248b727" data-name="Sublime">
    <g>
      <path class="uuid-2c7ed790-b36e-4a46-8e58-fbd8dec625ab" fill-rule="evenodd" d="m117.54,98.01c0-.59-.43-.92-.97-.76l-36.58,11.6c-.53.17-.97.78-.97,1.37v11.86c0,.59.43.93.97.76l36.58-11.6c.53-.17.97-.78.97-1.37v-11.86Z"/>
      <path class="uuid-edd40533-2f8f-4fa4-ba21-1eeaa21570db" fill-rule="evenodd" fill="#ff9800" d="m79.03,97.64c0,.59.43,1.2.97,1.37l36.59,11.6c.53.17.97-.17.97-.76v-11.86c0-.59-.43-1.2-.97-1.37l-36.59-11.6c-.53-.17-.97.17-.97.76v11.86Z"/>
      <path class="uuid-edd40533-2f8f-4fa4-ba21-1eeaa21570db" fill-rule="evenodd" fill="#ff9800" d="m117.54,73.65c0-.59-.43-.93-.97-.76l-36.58,11.6c-.53.17-.97.78-.97,1.37v11.86c0,.59.43.92.97.76l36.58-11.6c.53-.17.97-.78.97-1.37v-11.86Z"/>
    </g>
  </g>
</svg>
