<?xml version="1.0" standalone="no"?>
<!DOCTYPE svg PUBLIC "-//W3C//DTD SVG 20010904//EN"
 "http://www.w3.org/TR/2001/REC-SVG-20010904/DTD/svg10.dtd">
<svg version="1.0" xmlns="http://www.w3.org/2000/svg"
 width="1024.000000pt" height="1024.000000pt" viewBox="0 0 1024.000000 1024.000000"
 preserveAspectRatio="xMidYMid meet">
<metadata>
Created by potrace 1.14, written by Peter Selinger 2001-2017
</metadata>
<g transform="translate(0.000000,1024.000000) scale(0.100000,-0.100000)"
fill="#000000" stroke="none">
<path d="M3098 9235 c-2 -1 -76 -6 -165 -9 -90 -4 -180 -8 -200 -11 -83 -9
-159 -18 -173 -20 -8 -2 -33 -5 -55 -9 -84 -12 -246 -57 -350 -96 -308 -115
-566 -308 -772 -576 -45 -59 -173 -265 -173 -279 0 -3 -11 -28 -24 -57 -79
-175 -137 -404 -153 -605 -3 -40 -8 -73 -12 -73 -3 0 -7 -51 -7 -113 -4 -253
-6 -297 -18 -297 -8 0 -8 -2 0 -8 14 -9 15 -74 1 -65 -6 4 -7 1 -1 -8 11 -18
13 -79 2 -79 -5 0 -4 -9 2 -20 8 -14 8 -20 0 -20 -6 0 -8 -5 -4 -12 10 -16 12
-58 2 -64 -4 -3 -5 -11 -1 -19 3 -9 -1 -23 -8 -32 -10 -12 -10 -15 -1 -9 11 7
18 -13 12 -39 -5 -25 -1 -2356 5 -2365 3 -5 2 -10 -3 -10 -4 0 -6 -22 -2 -50
4 -27 2 -50 -2 -50 -5 0 -5 -7 0 -17 5 -9 6 -28 2 -43 -4 -15 -4 -34 1 -41 12
-19 11 -32 -1 -24 -5 3 -8 0 -5 -7 10 -29 11 -108 1 -108 -7 0 -8 -3 -1 -8 11
-8 13 -57 2 -68 -3 -4 -2 -15 4 -25 7 -13 6 -19 -1 -19 -6 0 -8 -5 -4 -11 10
-16 11 -120 2 -125 -5 -3 -5 -10 -2 -16 11 -18 10 -158 -1 -158 -5 0 -4 -4 3
-9 16 -10 16 -9 3 -43 -6 -15 -7 -29 -2 -32 9 -6 8 -63 -2 -72 -3 -4 -2 -15 4
-25 7 -14 6 -19 -2 -19 -8 0 -8 -4 -2 -12 12 -16 11 -118 -1 -137 -6 -9 -5
-12 2 -7 14 8 12 -36 -3 -46 -7 -5 -6 -8 1 -8 7 0 11 -25 12 -68 0 -92 12
-316 17 -321 2 -2 0 -12 -6 -22 -5 -11 -6 -19 -1 -19 6 0 10 -15 11 -32 2 -62
9 -133 14 -148 7 -18 28 -137 30 -167 1 -13 5 -23 9 -23 5 0 6 -11 4 -24 -2
-14 -1 -26 3 -28 5 -2 12 -14 16 -27 5 -17 4 -21 -5 -16 -7 4 -4 -4 5 -18 9
-15 13 -32 9 -38 -4 -8 -3 -9 4 -5 16 10 15 -16 -1 -34 -10 -12 -9 -12 5 -1
15 11 19 11 24 -3 3 -9 3 -23 0 -32 -3 -8 -2 -12 4 -9 5 3 12 -7 16 -22 3 -15
13 -38 20 -50 8 -13 11 -23 7 -23 -5 0 -3 -4 2 -8 6 -4 23 -32 38 -62 38 -75
102 -177 140 -224 17 -22 24 -36 16 -31 -8 5 1 -6 19 -24 18 -17 30 -37 26
-43 -4 -6 -3 -8 3 -5 6 4 19 -3 29 -16 19 -21 19 -21 -1 -7 -19 14 -19 14 -6
-2 7 -10 19 -18 27 -18 7 0 16 -5 20 -12 5 -7 3 -8 -6 -3 -9 5 -11 4 -6 -3 4
-7 14 -12 22 -12 8 0 14 -7 14 -15 0 -8 5 -15 10 -15 6 0 32 -21 59 -47 26
-27 66 -61 89 -77 23 -16 42 -33 42 -38 0 -5 4 -7 9 -3 5 3 16 -4 24 -15 7
-11 17 -17 22 -12 4 4 5 -1 2 -11 -4 -11 -3 -16 3 -12 6 4 27 -4 48 -17 68
-42 97 -59 115 -64 16 -6 21 -17 18 -36 0 -5 4 -8 10 -8 6 0 9 6 6 14 -4 10
11 7 51 -12 31 -14 59 -29 60 -34 2 -4 15 -8 28 -8 16 0 24 -6 24 -17 0 -11 3
-14 8 -7 12 18 114 -16 109 -37 -2 -8 1 -16 8 -16 7 0 11 6 8 14 -3 7 0 13 6
13 6 0 11 -4 11 -9 0 -5 9 -7 20 -4 15 4 20 0 20 -13 0 -15 2 -16 9 -5 7 11
14 11 40 -2 17 -9 28 -11 25 -5 -5 8 -1 9 10 5 10 -4 22 -7 27 -7 6 0 8 -3 6
-7 -3 -5 20 -8 50 -9 33 0 58 -5 63 -13 6 -11 9 -11 13 0 4 10 6 9 6 -3 1 -10
5 -18 11 -18 5 0 7 6 4 14 -8 21 37 8 57 -17 13 -16 19 -18 35 -9 18 11 17 12
-5 9 -13 -1 -26 3 -28 10 -2 7 3 10 14 8 10 -2 33 -4 51 -4 24 -1 31 -5 26
-13 -6 -10 -4 -10 7 -2 8 6 23 10 34 8 11 -2 46 -4 78 -5 34 -1 57 -6 57 -13
0 -7 3 -6 8 2 10 14 58 9 55 -6 -1 -6 4 -12 11 -15 10 -4 13 1 10 16 -2 12 -2
16 2 10 4 -9 11 -10 25 -3 13 8 19 7 19 0 0 -7 6 -8 19 0 22 11 37 -2 25 -22
-4 -7 -3 -8 4 -4 7 4 12 15 13 24 0 11 2 12 6 4 2 -6 10 -9 16 -5 6 4 8 0 4
-10 -4 -11 -2 -14 8 -10 8 3 13 9 10 13 -3 4 182 7 412 7 405 -2 416 -3 419
-22 2 -10 -3 -26 -9 -35 -11 -13 -10 -13 5 -1 11 8 16 22 14 36 -4 21 -1 22
60 24 46 1 64 -2 64 -11 0 -9 3 -9 8 -2 5 7 89 10 251 10 235 -1 244 -2 247
-21 2 -10 -3 -26 -9 -35 -11 -13 -10 -13 5 -1 11 8 16 22 14 36 -4 21 -1 22
60 24 46 1 64 -2 64 -11 0 -9 3 -9 8 -2 10 15 344 15 335 0 -5 -8 -2 -8 8 0
16 14 682 17 674 4 -3 -4 2 -10 10 -13 8 -4 12 -1 9 6 -3 9 8 14 32 15 20 2
33 -1 30 -7 -3 -5 1 -11 9 -14 8 -4 12 -1 9 6 -3 9 8 14 32 15 20 2 33 -1 30
-7 -3 -5 1 -11 9 -14 8 -4 12 -1 9 6 -3 9 8 14 32 15 20 2 33 -1 30 -7 -3 -5
1 -11 9 -14 9 -4 12 -1 9 7 -4 11 39 13 228 12 170 -1 233 -4 233 -13 0 -6 3
-15 7 -19 4 -3 6 2 3 14 -3 19 1 20 113 20 96 0 119 -3 129 -17 11 -14 12 -14
8 0 -5 14 10 16 125 16 100 0 130 -3 126 -12 -3 -9 2 -11 16 -7 15 4 17 7 6
14 -9 6 -3 8 20 5 17 -2 32 -1 32 3 0 4 7 7 15 7 8 0 15 -3 15 -6 0 -3 13 -6
30 -7 16 -1 27 3 24 7 -7 13 30 -3 38 -15 5 -7 8 -5 8 4 0 12 17 15 80 17 44
1 78 -1 76 -6 -3 -4 1 -8 9 -8 8 0 12 4 9 9 -3 4 3 8 13 9 10 0 34 2 53 4 23
2 38 -2 47 -13 11 -15 12 -15 8 -1 -3 9 0 16 7 17 7 1 31 4 53 7 57 7 105 14
144 21 26 4 32 3 26 -8 -3 -7 1 -4 9 6 9 11 16 17 16 14 0 -4 14 -3 30 2 21 6
30 5 30 -3 0 -6 6 -4 13 5 16 21 71 30 86 15 10 -9 12 -9 9 1 -2 8 7 18 20 23
15 6 22 5 22 -4 0 -8 3 -9 8 -1 7 11 45 34 56 34 3 0 4 -6 2 -12 -1 -7 -1 -10
1 -5 3 4 9 5 13 2 5 -3 12 0 16 6 4 8 3 9 -4 5 -7 -4 -12 -3 -12 1 0 6 82 42
110 48 3 0 29 13 58 28 28 15 52 25 52 22 0 -3 9 4 20 15 12 12 25 18 30 15 6
-4 10 -1 10 4 0 6 6 11 13 11 8 0 22 9 32 20 10 11 21 17 25 15 4 -3 11 2 14
11 3 8 10 12 16 9 6 -4 7 -12 4 -18 -4 -7 -3 -8 2 -4 5 5 9 16 9 25 0 11 8 17
22 16 12 0 20 2 18 6 -6 9 6 22 48 53 33 25 40 27 55 15 15 -11 16 -11 4 3
-11 14 -4 25 49 75 34 33 66 57 73 56 6 -2 8 0 3 4 -4 4 0 16 9 26 14 15 20
16 33 5 14 -10 14 -10 3 4 -10 14 -8 21 17 47 15 17 32 28 36 24 5 -4 5 -2 1
5 -7 13 23 55 35 48 4 -3 6 3 5 13 0 9 5 16 12 14 8 -1 11 2 7 8 -3 5 5 25 18
42 14 18 39 59 57 91 18 32 36 54 42 50 6 -3 8 -1 5 5 -10 15 3 43 16 35 6 -3
7 -1 3 6 -8 13 33 111 46 111 5 0 8 6 6 13 -1 6 6 35 16 64 12 37 21 50 32 46
8 -3 14 0 14 6 0 6 -3 10 -7 9 -16 -6 -15 9 5 77 12 39 23 84 26 100 2 17 5
31 6 33 4 4 6 14 20 119 9 68 17 100 24 96 6 -4 5 1 -2 10 -8 9 -10 22 -6 29
4 7 7 25 6 41 -2 21 1 26 10 21 10 -6 10 -4 2 7 -6 8 -10 28 -8 44 1 17 4 74
6 127 2 54 6 98 10 98 4 0 5 6 2 13 -7 19 -11 97 -4 97 4 0 4 3712 -1 3922 -1
36 2 71 6 77 3 6 3 11 -2 11 -4 0 -8 37 -9 83 -1 95 -12 301 -18 337 -3 14 -7
47 -11 74 -3 27 -12 83 -20 125 -37 192 -79 317 -164 486 -284 568 -837 916
-1525 961 -50 3 -111 8 -136 11 -44 5 -4256 13 -4262 8z"/>
<path d="M1250 1879 c0 -5 5 -7 10 -4 6 3 10 8 10 11 0 2 -4 4 -10 4 -5 0 -10
-5 -10 -11z"/>
<path d="M8886 1702 c-3 -5 1 -9 9 -9 8 0 12 4 9 9 -3 4 -7 8 -9 8 -2 0 -6 -4
-9 -8z"/>
<path d="M1355 1691 c-3 -5 -2 -12 3 -15 5 -3 9 1 9 9 0 17 -3 19 -12 6z"/>
<path d="M1430 1586 c0 -2 7 -7 16 -10 8 -3 12 -2 9 4 -6 10 -25 14 -25 6z"/>
<path d="M8815 1580 c3 -5 8 -10 11 -10 2 0 4 5 4 10 0 6 -5 10 -11 10 -5 0
-7 -4 -4 -10z"/>
<path d="M8750 1558 c0 -4 4 -8 9 -8 6 0 12 4 15 8 3 5 -1 9 -9 9 -8 0 -15 -4
-15 -9z"/>
<path d="M8717 1533 c-10 -9 -9 -23 1 -23 5 0 9 7 9 15 0 17 -1 18 -10 8z"/>
<path d="M8680 1500 c-8 -5 -12 -12 -9 -15 4 -3 12 1 19 10 14 17 11 19 -10 5z"/>
<path d="M1546 1478 c4 -5 12 -7 19 -4 8 3 16 1 19 -5 2 -5 3 -4 2 2 -1 7 -12
13 -24 14 -11 1 -19 -2 -16 -7z"/>
<path d="M8715 1480 c3 -5 8 -10 11 -10 2 0 4 5 4 10 0 6 -5 10 -11 10 -5 0
-7 -4 -4 -10z"/>
<path d="M1613 1435 c0 -8 4 -12 9 -9 5 3 6 10 3 15 -9 13 -12 11 -12 -6z"/>
<path d="M8630 1436 c7 -7 13 -7 20 0 6 6 3 10 -10 10 -13 0 -16 -4 -10 -10z"/>
<path d="M1616 1402 c-3 -5 1 -9 9 -9 8 0 12 4 9 9 -3 4 -7 8 -9 8 -2 0 -6 -4
-9 -8z"/>
<path d="M1650 1398 c0 -6 3 -8 7 -5 3 4 16 -1 27 -10 21 -18 21 -18 2 5 -21
24 -36 29 -36 10z"/>
<path d="M8576 1398 c3 -5 10 -6 15 -3 13 9 11 12 -6 12 -8 0 -12 -4 -9 -9z"/>
<path d="M1649 1363 c-13 -16 -12 -17 4 -4 9 7 17 15 17 17 0 8 -8 3 -21 -13z"/>
<path d="M8536 1353 c-6 -14 -5 -15 5 -6 7 7 10 15 7 18 -3 3 -9 -2 -12 -12z"/>
<path d="M1700 1345 c0 -2 6 -8 13 -14 10 -8 14 -7 14 2 0 8 -6 14 -14 14 -7
0 -13 -1 -13 -2z"/>
<path d="M8420 1266 c0 -2 8 -10 18 -17 15 -13 16 -12 3 4 -13 16 -21 21 -21
13z"/>
<path d="M1853 1243 c2 -12 7 -26 12 -30 4 -5 5 -3 1 4 -3 6 4 19 16 27 12 9
17 16 11 16 -7 0 -15 -5 -19 -11 -4 -8 -9 -7 -15 2 -6 10 -8 8 -6 -8z"/>
<path d="M1790 1239 c0 -5 5 -7 10 -4 6 3 10 8 10 11 0 2 -4 4 -10 4 -5 0 -10
-5 -10 -11z"/>
<path d="M8310 1236 c0 -2 9 -6 20 -9 11 -3 18 -1 14 4 -5 9 -34 13 -34 5z"/>
<path d="M2035 1170 c-4 -6 -10 -8 -15 -5 -4 3 -14 -3 -21 -13 -12 -15 -12
-16 2 -5 9 7 18 11 21 8 3 -3 11 1 18 10 7 8 10 15 7 15 -3 0 -9 -5 -12 -10z"/>
<path d="M2069 1158 c7 -10 10 -18 6 -18 -4 0 -2 -7 5 -15 7 -8 18 -15 24 -15
6 0 3 5 -7 11 -9 6 -15 14 -12 18 2 5 -3 15 -13 22 -15 13 -16 12 -3 -3z"/>
<path d="M8230 1159 c0 -5 5 -7 10 -4 6 3 10 8 10 11 0 2 -4 4 -10 4 -5 0 -10
-5 -10 -11z"/>
<path d="M2015 1129 c-4 -6 -5 -12 -2 -15 2 -3 7 2 10 11 7 17 1 20 -8 4z"/>
<path d="M2119 1093 c-13 -16 -12 -17 4 -4 16 13 21 21 13 21 -2 0 -10 -8 -17
-17z"/>
<path d="M1996 1078 c3 -5 10 -6 15 -3 13 9 11 12 -6 12 -8 0 -12 -4 -9 -9z"/>
<path d="M2174 1074 c1 -8 4 -15 7 -16 2 -2 3 -1 2 1 -2 2 2 9 7 16 7 8 5 12
-4 12 -8 0 -13 -6 -12 -13z"/>
<path d="M2210 1078 c0 -6 3 -8 7 -5 3 4 13 1 22 -6 14 -11 14 -10 2 6 -15 20
-31 22 -31 5z"/>
<path d="M7970 1081 c0 -6 4 -13 10 -16 6 -3 7 1 4 9 -7 18 -14 21 -14 7z"/>
<path d="M8020 1080 c-9 -6 -10 -10 -3 -10 6 0 15 5 18 10 8 12 4 12 -15 0z"/>
<path d="M8073 1073 c0 -9 4 -10 14 -2 7 6 13 12 13 14 0 1 -6 2 -13 2 -8 0
-14 -6 -14 -14z"/>
<path d="M8110 1079 c0 -5 5 -7 10 -4 6 3 10 8 10 11 0 2 -4 4 -10 4 -5 0 -10
-5 -10 -11z"/>
<path d="M2309 1063 c-13 -16 -12 -17 4 -4 9 7 17 15 17 17 0 8 -8 3 -21 -13z"/>
<path d="M7866 1061 c-4 -5 3 -7 14 -4 23 6 26 13 6 13 -8 0 -17 -4 -20 -9z"/>
<path d="M2259 1058 c-5 -9 -5 -48 -1 -43 6 6 11 45 5 45 -2 0 -4 -1 -4 -2z"/>
<path d="M2317 1035 c-4 -8 -3 -16 1 -19 4 -3 9 4 9 15 2 23 -3 25 -10 4z"/>
<path d="M7950 1045 c0 -7 30 -13 34 -7 3 4 -4 9 -15 9 -10 1 -19 0 -19 -2z"/>
<path d="M2506 1023 c-6 -14 -5 -15 5 -6 7 7 10 15 7 18 -3 3 -9 -2 -12 -12z"/>
<path d="M7708 1008 c2 -10 9 -18 15 -18 6 0 7 3 4 7 -4 3 -3 11 3 17 6 8 3
12 -9 12 -12 0 -17 -6 -13 -18z"/>
<path d="M7807 1019 c7 -7 15 -10 18 -7 3 3 -2 9 -12 12 -14 6 -15 5 -6 -5z"/>
<path d="M2414 1009 c-3 -6 -2 -15 3 -20 5 -5 9 -1 9 11 0 23 -2 24 -12 9z"/>
<path d="M2456 998 c3 -4 11 -5 19 -1 21 7 19 12 -4 10 -11 0 -18 -5 -15 -9z"/>
<path d="M2550 1001 c0 -6 4 -13 10 -16 6 -3 7 1 4 9 -7 18 -14 21 -14 7z"/>
<path d="M7544 998 c-4 -7 -3 -8 5 -4 6 4 19 2 27 -5 12 -10 13 -9 8 5 -7 19
-30 21 -40 4z"/>
<path d="M7650 999 c0 -5 4 -8 9 -4 6 3 14 -3 20 -12 6 -10 11 -13 11 -7 0 12
-20 34 -32 34 -4 0 -8 -5 -8 -11z"/>
<path d="M7776 998 c3 -5 10 -6 15 -3 13 9 11 12 -6 12 -8 0 -12 -4 -9 -9z"/>
<path d="M2630 996 c0 -2 8 -10 18 -17 15 -13 16 -12 3 4 -13 16 -21 21 -21
13z"/>
<path d="M7353 985 c0 -8 10 -23 21 -32 21 -18 21 -18 4 2 -9 11 -17 24 -16
28 0 5 -2 11 -4 13 -3 2 -5 -3 -5 -11z"/>
<path d="M2506 978 c3 -4 9 -8 15 -8 5 0 9 4 9 8 0 5 -7 9 -15 9 -8 0 -12 -4
-9 -9z"/>
<path d="M2590 976 c7 -7 13 -7 20 0 6 6 3 10 -10 10 -13 0 -16 -4 -10 -10z"/>
<path d="M2748 983 c7 -3 16 -2 19 1 4 3 -2 6 -13 5 -11 0 -14 -3 -6 -6z"/>
<path d="M3036 982 c-3 -5 1 -9 9 -9 8 0 12 4 9 9 -3 4 -7 8 -9 8 -2 0 -6 -4
-9 -8z"/>
<path d="M3390 981 c0 -6 4 -12 8 -15 5 -3 9 1 9 9 0 8 -4 15 -9 15 -4 0 -8
-4 -8 -9z"/>
<path d="M3510 980 c0 -5 5 -10 10 -10 6 0 10 5 10 10 0 6 -4 10 -10 10 -5 0
-10 -4 -10 -10z"/>
<path d="M3706 977 c3 -10 9 -15 12 -12 3 3 0 11 -7 18 -10 9 -11 8 -5 -6z"/>
<path d="M3755 980 c-3 -5 -1 -10 4 -10 6 0 11 5 11 10 0 6 -2 10 -4 10 -3 0
-8 -4 -11 -10z"/>
<path d="M3947 970 c3 -11 9 -22 13 -25 5 -3 6 4 3 15 -3 11 -9 22 -13 25 -5
3 -6 -4 -3 -15z"/>
<path d="M4266 977 c3 -10 9 -15 12 -12 3 3 0 11 -7 18 -10 9 -11 8 -5 -6z"/>
<path d="M4387 969 c4 -13 8 -18 11 -10 2 7 -1 18 -6 23 -8 8 -9 4 -5 -13z"/>
<path d="M4587 970 c3 -11 9 -22 13 -25 5 -3 6 4 3 15 -3 11 -9 22 -13 25 -5
3 -6 -4 -3 -15z"/>
<path d="M4906 977 c3 -10 9 -15 12 -12 3 3 0 11 -7 18 -10 9 -11 8 -5 -6z"/>
<path d="M5027 969 c4 -13 8 -18 11 -10 2 7 -1 18 -6 23 -8 8 -9 4 -5 -13z"/>
<path d="M5147 970 c3 -11 9 -22 13 -25 5 -3 6 4 3 15 -3 11 -9 22 -13 25 -5
3 -6 -4 -3 -15z"/>
<path d="M5195 980 c-3 -5 -1 -10 4 -10 6 0 11 5 11 10 0 6 -2 10 -4 10 -3 0
-8 -4 -11 -10z"/>
<path d="M5386 977 c3 -10 9 -15 12 -12 3 3 0 11 -7 18 -10 9 -11 8 -5 -6z"/>
<path d="M5435 980 c-3 -5 -1 -10 4 -10 6 0 11 5 11 10 0 6 -2 10 -4 10 -3 0
-8 -4 -11 -10z"/>
<path d="M5626 977 c3 -10 9 -15 12 -12 3 3 0 11 -7 18 -10 9 -11 8 -5 -6z"/>
<path d="M5675 980 c-3 -5 -1 -10 4 -10 6 0 11 5 11 10 0 6 -2 10 -4 10 -3 0
-8 -4 -11 -10z"/>
<path d="M6106 976 c5 -12 4 -17 -3 -13 -5 3 -10 -1 -10 -9 0 -13 2 -13 16 0
12 13 13 18 2 28 -10 11 -11 9 -5 -6z"/>
<path d="M6155 980 c-3 -5 -1 -10 4 -10 6 0 11 5 11 10 0 6 -2 10 -4 10 -3 0
-8 -4 -11 -10z"/>
<path d="M6349 974 c7 -15 7 -25 -2 -35 -7 -7 -3 -6 9 4 11 9 24 14 29 10 4
-5 5 -2 1 5 -5 7 -10 11 -14 8 -3 -3 -11 2 -19 12 -13 15 -13 15 -4 -4z"/>
<path d="M6466 976 c5 -13 4 -17 -4 -12 -7 4 -12 2 -12 -3 0 -14 17 -14 26 0
3 6 1 16 -5 22 -9 9 -10 7 -5 -7z"/>
<path d="M6633 972 c0 -11 5 -18 9 -16 4 3 8 0 8 -7 0 -7 3 -10 6 -6 3 3 -1
16 -9 28 -16 22 -16 22 -14 1z"/>
<path d="M6706 975 c4 -8 11 -15 16 -15 6 0 5 6 -2 15 -7 8 -14 15 -16 15 -2
0 -1 -7 2 -15z"/>
<path d="M2693 966 c0 -15 22 -15 34 0 4 5 4 6 -1 2 -5 -4 -14 -3 -21 2 -8 7
-12 5 -12 -4z"/>
<path d="M2779 978 c-5 -9 -5 -48 -1 -43 6 6 11 45 5 45 -2 0 -4 -1 -4 -2z"/>
<path d="M2919 978 c-5 -18 -6 -38 -1 -34 7 8 12 36 6 36 -2 0 -4 -1 -5 -2z"/>
<path d="M2940 976 c0 -2 7 -7 16 -10 8 -3 12 -2 9 4 -6 10 -25 14 -25 6z"/>
<path d="M3257 961 c-4 -17 -3 -21 5 -13 5 5 8 16 6 23 -3 8 -7 3 -11 -10z"/>
<path d="M4322 964 c10 -10 20 -16 22 -13 3 3 -5 11 -17 18 -21 13 -21 12 -5
-5z"/>
<path d="M4457 969 c7 -7 15 -10 18 -7 3 3 -2 9 -12 12 -14 6 -15 5 -6 -5z"/>
<path d="M4962 964 c10 -10 20 -16 22 -13 3 3 -5 11 -17 18 -21 13 -21 12 -5
-5z"/>
<path d="M5097 969 c7 -7 15 -10 18 -7 3 3 -2 9 -12 12 -14 6 -15 5 -6 -5z"/>
<path d="M6396 967 c3 -10 9 -15 12 -12 3 3 0 11 -7 18 -10 9 -11 8 -5 -6z"/>
<path d="M6995 969 c-4 -6 -5 -12 -2 -15 2 -3 7 2 10 11 7 17 1 20 -8 4z"/>
<path d="M7556 967 c3 -10 9 -15 12 -12 3 3 0 11 -7 18 -10 9 -11 8 -5 -6z"/>
<path d="M7656 967 c3 -10 9 -15 12 -12 3 3 0 11 -7 18 -10 9 -11 8 -5 -6z"/>
<path d="M2814 954 c1 -7 6 -17 10 -21 4 -4 6 -1 4 7 -2 9 3 14 12 12 8 -2 11
0 7 4 -13 14 -35 12 -33 -2z"/>
<path d="M3066 962 c-2 -4 4 -8 14 -8 10 0 16 4 14 8 -3 4 -9 8 -14 8 -5 0
-11 -4 -14 -8z"/>
<path d="M3115 960 c-3 -5 -1 -10 4 -10 6 0 11 5 11 10 0 6 -2 10 -4 10 -3 0
-8 -4 -11 -10z"/>
<path d="M3190 960 c0 -5 5 -10 11 -10 5 0 7 5 4 10 -3 6 -8 10 -11 10 -2 0
-4 -4 -4 -10z"/>
<path d="M3326 961 c-3 -4 6 -7 19 -7 14 0 22 2 19 5 -8 8 -34 10 -38 2z"/>
<path d="M3474 956 c1 -8 5 -18 8 -22 4 -3 5 1 4 10 -1 8 -5 18 -8 22 -4 3 -5
-1 -4 -10z"/>
<path d="M3559 968 c-6 -20 -6 -39 0 -42 4 -3 7 6 7 20 0 20 -4 32 -7 22z"/>
<path d="M3680 960 c-9 -6 -10 -10 -3 -10 6 0 15 5 18 10 8 12 4 12 -15 0z"/>
<path d="M3730 960 c0 -5 5 -10 11 -10 5 0 7 5 4 10 -3 6 -8 10 -11 10 -2 0
-4 -4 -4 -10z"/>
<path d="M3860 960 c-8 -5 -10 -10 -5 -10 6 0 17 5 25 10 8 5 11 10 5 10 -5 0
-17 -5 -25 -10z"/>
<path d="M3931 954 c0 -11 3 -14 6 -6 3 7 2 16 -1 19 -3 4 -6 -2 -5 -13z"/>
<path d="M4130 961 c0 -6 4 -13 10 -16 6 -3 7 1 4 9 -7 18 -14 21 -14 7z"/>
<path d="M4200 960 c8 -5 20 -10 25 -10 6 0 3 5 -5 10 -8 5 -19 10 -25 10 -5
0 -3 -5 5 -10z"/>
<path d="M4411 954 c0 -11 3 -14 6 -6 3 7 2 16 -1 19 -3 4 -6 -2 -5 -13z"/>
<path d="M4500 960 c-8 -5 -10 -10 -5 -10 6 0 17 5 25 10 8 5 11 10 5 10 -5 0
-17 -5 -25 -10z"/>
<path d="M4571 954 c0 -11 3 -14 6 -6 3 7 2 16 -1 19 -3 4 -6 -2 -5 -13z"/>
<path d="M4770 961 c0 -6 4 -13 10 -16 6 -3 7 1 4 9 -7 18 -14 21 -14 7z"/>
<path d="M4840 960 c8 -5 20 -10 25 -10 6 0 3 5 -5 10 -8 5 -19 10 -25 10 -5
0 -3 -5 5 -10z"/>
<path d="M5051 954 c0 -11 3 -14 6 -6 3 7 2 16 -1 19 -3 4 -6 -2 -5 -13z"/>
<path d="M5267 959 c7 -7 15 -10 18 -7 3 3 -2 9 -12 12 -14 6 -15 5 -6 -5z"/>
<path d="M5320 960 c8 -5 20 -10 25 -10 6 0 3 5 -5 10 -8 5 -19 10 -25 10 -5
0 -3 -5 5 -10z"/>
<path d="M5496 953 c-6 -14 -5 -15 5 -6 7 7 10 15 7 18 -3 3 -9 -2 -12 -12z"/>
<path d="M5555 960 c3 -5 8 -10 11 -10 2 0 4 5 4 10 0 6 -5 10 -11 10 -5 0 -7
-4 -4 -10z"/>
<path d="M5650 960 c0 -5 5 -10 11 -10 5 0 7 5 4 10 -3 6 -8 10 -11 10 -2 0
-4 -4 -4 -10z"/>
<path d="M5830 961 c0 -6 4 -12 8 -15 5 -3 9 1 9 9 0 8 -4 15 -9 15 -4 0 -8
-4 -8 -9z"/>
<path d="M5905 960 c-3 -6 1 -7 9 -4 18 7 21 14 7 14 -6 0 -13 -4 -16 -10z"/>
<path d="M6264 959 c-5 -8 -3 -9 6 -4 7 4 16 2 22 -6 8 -12 9 -12 6 0 -6 20
-24 25 -34 10z"/>
<path d="M6570 958 c0 -4 4 -8 9 -8 6 0 12 4 15 8 3 5 -1 9 -9 9 -8 0 -15 -4
-15 -9z"/>
<path d="M6810 962 c0 -5 7 -9 15 -9 8 0 12 4 9 9 -3 4 -9 8 -15 8 -5 0 -9 -4
-9 -8z"/>
<path d="M7033 956 c-3 -6 -3 -8 2 -4 4 4 13 3 20 -2 8 -7 12 -5 12 3 0 16
-25 18 -34 3z"/>
<path d="M7110 963 c0 -6 8 -17 18 -24 16 -13 16 -13 2 6 -8 11 -16 22 -17 24
-2 2 -3 0 -3 -6z"/>
<path d="M7153 955 c0 -8 4 -12 9 -9 5 3 6 10 3 15 -9 13 -12 11 -12 -6z"/>
<path d="M7216 953 c-6 -14 -5 -15 5 -6 7 7 10 15 7 18 -3 3 -9 -2 -12 -12z"/>
<path d="M7314 956 c1 -8 5 -18 8 -22 4 -3 5 1 4 10 -1 8 -5 18 -8 22 -4 3 -5
-1 -4 -10z"/>
<path d="M7705 960 c-3 -6 1 -7 9 -4 18 7 21 14 7 14 -6 0 -13 -4 -16 -10z"/>
<path d="M4430 956 c0 -2 8 -10 18 -17 15 -13 16 -12 3 4 -13 16 -21 21 -21
13z"/>
<path d="M5070 956 c0 -2 8 -10 18 -17 15 -13 16 -12 3 4 -13 16 -21 21 -21
13z"/>
<path d="M2879 933 c-13 -16 -12 -17 4 -4 16 13 21 21 13 21 -2 0 -10 -8 -17
-17z"/>
<path d="M3020 946 c0 -2 8 -10 18 -17 15 -13 16 -12 3 4 -13 16 -21 21 -21
13z"/>
<path d="M3510 940 c0 -5 5 -10 10 -10 6 0 10 5 10 10 0 6 -4 10 -10 10 -5 0
-10 -4 -10 -10z"/>
<path d="M3835 930 c10 -11 20 -20 23 -20 3 0 -3 9 -13 20 -10 11 -20 20 -23
20 -3 0 3 -9 13 -20z"/>
<path d="M3879 933 c-13 -16 -12 -17 4 -4 16 13 21 21 13 21 -2 0 -10 -8 -17
-17z"/>
<path d="M4315 930 c10 -11 20 -20 23 -20 3 0 -3 9 -13 20 -10 11 -20 20 -23
20 -3 0 3 -9 13 -20z"/>
<path d="M4356 933 c-6 -14 -5 -15 5 -6 7 7 10 15 7 18 -3 3 -9 -2 -12 -12z"/>
<path d="M4519 933 c-13 -16 -12 -17 4 -4 9 7 17 15 17 17 0 8 -8 3 -21 -13z"/>
<path d="M4955 930 c10 -11 20 -20 23 -20 3 0 -3 9 -13 20 -10 11 -20 20 -23
20 -3 0 3 -9 13 -20z"/>
<path d="M4996 933 c-6 -14 -5 -15 5 -6 7 7 10 15 7 18 -3 3 -9 -2 -12 -12z"/>
<path d="M5116 938 c3 -5 10 -6 15 -3 13 9 11 12 -6 12 -8 0 -12 -4 -9 -9z"/>
<path d="M5424 942 c4 -3 14 -7 22 -8 9 -1 13 0 10 4 -4 3 -14 7 -22 8 -9 1
-13 0 -10 -4z"/>
<path d="M5869 937 c6 -8 7 -18 3 -22 -4 -5 -1 -5 6 -1 10 6 10 11 1 22 -6 8
-14 14 -16 14 -3 0 0 -6 6 -13z"/>
<path d="M5940 946 c0 -2 8 -10 18 -17 15 -13 16 -12 3 4 -13 16 -21 21 -21
13z"/>
<path d="M5990 936 c7 -7 13 -7 20 0 6 6 3 10 -10 10 -13 0 -16 -4 -10 -10z"/>
<path d="M6041 936 c-9 -11 -9 -16 1 -22 7 -4 10 -4 6 1 -4 4 -3 14 3 22 6 7
9 13 6 13 -2 0 -10 -6 -16 -14z"/>
<path d="M6555 930 c10 -11 20 -20 23 -20 3 0 -3 9 -13 20 -10 11 -20 20 -23
20 -3 0 3 -9 13 -20z"/>
<path d="M6596 933 c-6 -14 -5 -15 5 -6 7 7 10 15 7 18 -3 3 -9 -2 -12 -12z"/>
<path d="M6706 941 c-4 -5 3 -7 14 -4 23 6 26 13 6 13 -8 0 -17 -4 -20 -9z"/>
<path d="M6873 933 c0 -9 4 -10 14 -2 7 6 13 12 13 14 0 1 -6 2 -13 2 -8 0
-14 -6 -14 -14z"/>
<path d="M6918 943 c7 -3 16 -2 19 1 4 3 -2 6 -13 5 -11 0 -14 -3 -6 -6z"/>
<path d="M7590 946 c0 -2 7 -7 16 -10 8 -3 12 -2 9 4 -6 10 -25 14 -25 6z"/>
<path d="M3095 931 c-3 -5 -2 -12 3 -15 5 -3 9 1 9 9 0 17 -3 19 -12 6z"/>
<path d="M3135 931 c-3 -5 -2 -12 3 -15 5 -3 9 1 9 9 0 17 -3 19 -12 6z"/>
<path d="M3176 927 c3 -10 9 -15 12 -12 3 3 0 11 -7 18 -10 9 -11 8 -5 -6z"/>
<path d="M5775 931 c-3 -5 -2 -12 3 -15 5 -3 9 1 9 9 0 17 -3 19 -12 6z"/>
<path d="M6113 925 c0 -8 4 -12 9 -9 5 3 6 10 3 15 -9 13 -12 11 -12 -6z"/>
<path d="M6195 931 c-3 -5 -2 -12 3 -15 5 -3 9 1 9 9 0 17 -3 19 -12 6z"/>
<path d="M6973 925 c0 -8 4 -12 9 -9 5 3 6 10 3 15 -9 13 -12 11 -12 -6z"/>
<path d="M5190 925 c0 -7 30 -13 34 -7 3 4 -4 9 -15 9 -10 1 -19 0 -19 -2z"/>
<path d="M6076 918 c3 -5 10 -6 15 -3 13 9 11 12 -6 12 -8 0 -12 -4 -9 -9z"/>
<path d="M6150 918 c0 -4 4 -8 9 -8 6 0 12 4 15 8 3 5 -1 9 -9 9 -8 0 -15 -4
-15 -9z"/>
<path d="M5917 913 c-10 -9 -9 -23 1 -23 5 0 9 7 9 15 0 17 -1 18 -10 8z"/>
</g>
</svg>
